<svg xmlns="http://www.w3.org/2000/svg" version="1.1" xmlns:xlink="http://www.w3.org/1999/xlink" xmlns:svgjs="http://svgjs.dev/svgjs" width="1000" height="2225" viewBox="0 0 1000 2225"><g transform="matrix(1,0,0,1,2.1449474952660808,0.9008097165990421)"><svg viewBox="0 0 111 247" data-background-color="#000000" preserveAspectRatio="xMidYMid meet" height="2225" width="1000" xmlns="http://www.w3.org/2000/svg" xmlns:xlink="http://www.w3.org/1999/xlink"><g id="tight-bounds" transform="matrix(1,0,0,1,-0.23808917197453638,-0.09999999999999432)"><svg viewBox="0 0 111.47617834394904 247.2" height="247.2" width="111.47617834394904"><g><svg viewBox="0 0 111.47617834394904 247.2" height="247.2" width="111.47617834394904"><g><svg viewBox="0 0 111.47617834394904 247.2" height="247.2" width="111.47617834394904"><g><svg viewBox="0 0 111.47617834394904 247.2" height="247.2" width="111.47617834394904"><g><svg viewBox="0 0 111.47617834394904 247.2" height="247.2" width="111.47617834394904"><g transform="matrix(1,0,0,1,0,0)"><svg width="111.47617834394904" viewBox="-0.24 -37.11 17.279999999999998 38.33" height="247.2" data-palette-color="#ffffff"><path d="M13.38-36.33L13.38-36.33Q13.72-35.69 13.72-34.86L13.72-34.86Q13.72-34.13 13.43-33.3 13.13-32.47 12.5-32.03L12.5-32.03Q12.06-31.05 11.65-30.44 11.23-29.83 10.84-29.25L10.84-29.25Q10.69-28.91 10.55-28.59 10.4-28.27 10.16-27.93L10.16-27.93Q10.01-27.69 9.52-26.95 9.03-26.22 8.52-25.42 8.01-24.61 7.62-23.88 7.23-23.14 7.23-22.95L7.23-22.95Q7.23-22.75 7.69-22.46 8.15-22.17 8.3-22.02L8.3-22.02Q8.54-21.78 8.76-21.53 8.98-21.29 9.23-21.04L9.23-21.04Q9.77-20.61 10.28-20.17 10.79-19.73 11.33-19.19L11.33-19.19Q12.35-18.26 13.48-17.43 14.6-16.6 15.48-15.48L15.48-15.48Q16.31-15.23 16.55-14.31 16.8-13.38 16.7-12.55L16.7-12.55Q16.8-12.4 16.87-12.26 16.94-12.11 17.04-11.91L17.04-11.91Q17.04-11.13 16.82-10.77 16.6-10.4 16.36-9.86L16.36-9.86Q16.11-9.38 16.04-8.89 15.97-8.4 15.72-8.01L15.72-8.01Q15.63-7.86 15.45-7.76 15.28-7.67 15.19-7.47L15.19-7.47Q14.99-7.13 14.87-6.67 14.75-6.2 14.55-5.81L14.55-5.81Q14.4-5.42 14.18-5.03 13.96-4.64 13.82-4.25L13.82-4.25Q13.72-4 13.65-3.66 13.57-3.32 13.18-3.17L13.18-3.17Q12.94-2.29 12.52-1.46 12.11-0.63 11.87 0.24L11.87 0.24Q11.43 0.39 10.77 0.81 10.11 1.22 9.72 1.22L9.72 1.22Q9.57 1.22 9.47 1.07 9.38 0.93 9.18 0.83L9.18 0.83Q9.08 0.78 8.91 0.83 8.74 0.88 8.64 0.88L8.64 0.88Q8.4 0.88 8.28 0.68 8.15 0.49 7.96 0.39L7.96 0.39Q7.81 0.44 7.67 0.49 7.52 0.54 7.37 0.54L7.37 0.54Q7.03 0.54 6.98 0.37 6.93 0.2 6.69 0.05L6.69 0.05Q6.1-0.24 6.01-0.49 5.91-0.73 5.71-0.83L5.71-0.83Q6.05-2.1 6.64-3.25 7.23-4.39 7.76-5.57L7.76-5.57Q7.91-5.96 8.13-6.3 8.35-6.64 8.54-7.03L8.54-7.03Q8.69-7.37 8.98-7.91 9.28-8.45 9.52-9.03 9.77-9.62 9.96-10.13 10.16-10.64 10.16-10.99L10.16-10.99Q10.16-11.67 9.77-12.01L9.77-12.01Q8.35-13.18 7.1-14.4 5.86-15.63 4.49-16.89L4.49-16.89Q3.61-17.68 2.59-18.51L2.59-18.51Q2.39-18.65 2.29-18.95 2.2-19.24 2-19.48L2-19.48Q1.9-19.68 1.71-19.78 1.51-19.87 1.42-20.07L1.42-20.07Q1.27-20.26 1.22-20.53 1.17-20.8 0.93-20.95L0.93-20.95Q0.68-21.19 0.34-21.24 0-21.29-0.24-21.53L-0.24-21.53Q-0.1-21.68-0.12-21.85-0.15-22.02-0.15-22.17L-0.15-22.17Q-0.15-22.51 0.15-22.66 0.44-22.8 0.44-23.19L0.44-23.19Q0.63-23.58 0.73-23.68L0.73-23.68Q1.27-25 1.95-26.22 2.64-27.44 3.37-28.66L3.37-28.66Q3.61-29.05 3.83-29.42 4.05-29.79 4.3-30.18L4.3-30.18Q4.44-30.52 4.57-30.79 4.69-31.05 4.93-31.3L4.93-31.3Q5.62-32.08 6.08-32.76 6.54-33.45 6.79-34.42L6.79-34.42Q6.84-34.67 6.98-35.11 7.13-35.55 7.35-35.99 7.57-36.43 7.81-36.77 8.06-37.11 8.35-37.11L8.35-37.11Q8.59-37.11 9.06-36.91 9.52-36.72 9.86-36.62L9.86-36.62Q10.16-36.52 10.47-36.45 10.79-36.38 11.08-36.38L11.08-36.38Q11.28-36.38 11.47-36.5 11.67-36.62 11.91-36.62L11.91-36.62Q12.3-36.62 12.65-36.5 12.99-36.38 13.38-36.33Z" opacity="1" transform="matrix(1,0,0,1,0,0)" fill="#ffffff" class="undefined-text-0" data-fill-palette-color="primary" id="text-0"></path></svg></g></svg></g></svg></g></svg></g></svg></g><defs></defs></svg><rect width="111.47617834394904" height="247.2" fill="none" stroke="none" visibility="hidden"></rect></g></svg></g></svg>